<svg version="1.1" id="Layer_1" xmlns="http://www.w3.org/2000/svg" xmlns:xlink="http://www.w3.org/1999/xlink" x="0px" y="0px"
	 width="100%" viewBox="0 0 500 500" enable-background="new 0 0 500 500" xml:space="preserve">
<path fill="#F6F4F0" opacity="1.000000" stroke="none" 
	d="
M454.000000,501.000000 
	C302.666718,501.000000 151.833405,501.000000 1.000081,501.000000 
	C1.000054,334.333405 1.000054,167.666824 1.000027,1.000170 
	C167.666550,1.000114 334.333099,1.000114 500.999756,1.000057 
	C500.999817,167.666519 500.999817,334.333038 500.999908,500.999756 
	C485.500000,501.000000 470.000000,501.000000 454.000000,501.000000 
M368.890686,307.003174 
	C368.890686,310.030853 368.890686,313.058533 368.890686,316.086243 
	C369.485626,316.058655 370.080566,316.031067 370.675507,316.003479 
	C371.010345,314.349884 371.345215,312.696320 371.717072,310.860016 
	C373.412903,310.980927 374.839264,311.082642 376.106476,311.172974 
	C376.519226,313.065704 376.853729,314.599640 377.188232,316.133545 
	C377.585999,316.052582 377.983765,315.971588 378.381531,315.890625 
	C378.381531,311.816650 378.381531,307.742676 378.381531,302.568665 
	C375.893219,305.383087 376.866058,311.005493 372.215515,307.695068 
	C371.138000,306.543884 370.060455,305.392670 368.295990,303.812378 
	C364.963837,303.812378 361.631683,303.812378 358.299530,303.812378 
	C358.276215,304.270325 358.252930,304.728271 358.229645,305.186218 
	C359.487122,305.630859 360.744598,306.075500 361.742035,306.428162 
	C361.985352,309.970734 362.196960,313.051910 362.408600,316.133087 
	C363.048248,316.142120 363.687897,316.151154 364.327545,316.160187 
	C364.598602,312.940765 364.869659,309.721313 365.174347,306.102753 
	C366.425964,306.102753 367.682037,306.102753 368.890686,307.003174 
M412.569489,314.708008 
	C413.178528,314.871735 413.784607,315.162476 414.397095,315.176636 
	C416.729065,315.230682 419.505585,315.993011 421.290527,315.002838 
	C423.837067,313.589996 422.813263,311.111115 421.004181,309.161865 
	C420.722076,308.857849 420.793091,307.844727 421.088226,307.446930 
	C423.329773,304.425201 420.301758,303.665527 418.904022,303.713959 
	C416.946228,303.781830 415.032715,305.128235 413.100250,305.927704 
	C413.936707,307.322693 414.502930,309.044373 415.684692,310.021820 
	C416.894135,311.022125 418.706787,311.293213 420.255402,311.883484 
	C420.051117,312.565399 419.846863,313.247345 419.642609,313.929260 
	C417.546051,313.362244 415.449463,312.795197 413.381195,312.235840 
	C412.958374,312.933258 412.465912,313.745575 411.209595,313.982910 
	C409.606781,313.869781 408.003967,313.756622 406.401154,313.643463 
	C406.257080,313.207397 406.113007,312.771301 405.968964,312.335236 
	C407.813965,311.520721 409.658997,310.706207 411.879456,309.725952 
	C409.548981,308.788422 407.789062,308.080414 406.029114,307.372406 
	C406.179932,306.998718 406.330750,306.625061 406.481567,306.251373 
	C408.352539,305.877075 410.223511,305.502777 412.094452,305.128479 
	C412.032227,304.740021 411.969971,304.351562 411.907745,303.963104 
	C409.309387,303.963104 406.711029,303.963104 404.265259,303.963104 
	C404.265259,308.163483 404.265259,312.056183 404.265259,316.290375 
	C407.109924,315.978851 409.541656,315.712555 412.569489,314.708008 
M410.399597,287.974518 
	C410.399597,287.974518 410.016388,287.998444 409.760132,287.408752 
	C408.549957,285.060516 407.521545,285.140717 407.143829,287.763885 
	C406.886200,289.552887 407.332550,291.457764 406.978394,293.212799 
	C406.773804,294.226532 405.604614,295.045593 404.869598,295.952301 
	C403.943481,295.047058 402.393524,294.248169 402.217438,293.215088 
	C401.816956,290.865112 402.091217,288.400116 402.091217,285.851166 
	C399.749573,286.032227 397.990814,286.168243 396.741089,286.264862 
	C395.998932,290.211578 395.306274,293.894867 394.509583,298.131378 
	C395.776642,297.489258 397.605072,296.562653 399.573151,295.565247 
	C403.478851,299.254425 405.931000,299.285034 408.791382,296.314911 
	C412.475708,296.875275 415.305389,297.512695 418.148499,297.579681 
	C418.788422,297.594757 420.280304,295.181915 419.987610,294.642883 
	C419.152313,293.104675 417.599945,291.955902 416.965027,290.037476 
	C417.172485,289.827667 417.379944,289.617828 418.273102,289.386932 
	C420.016785,288.820862 421.760468,288.254761 424.398590,287.398285 
	C424.398590,291.697205 424.398590,294.849274 424.398590,299.410400 
	C428.390930,294.841431 423.472839,288.198212 430.356201,286.478851 
	C424.588501,285.997986 419.220734,285.749786 413.859253,285.847473 
	C412.821350,285.866394 411.808044,287.236694 410.399597,287.974518 
M378.013397,272.255676 
	C375.868134,268.161926 373.722870,264.068176 371.679840,260.169556 
	C372.014771,259.536102 372.102722,259.177460 372.329071,258.969513 
	C379.856323,252.054596 381.475739,243.567108 377.819489,234.415497 
	C374.063385,225.013718 366.164459,221.203629 356.381256,221.019043 
	C349.890869,220.896591 343.395355,221.056274 336.904358,220.951935 
	C334.272888,220.909653 332.880188,221.637131 332.893921,224.581268 
	C332.966919,240.229858 332.885040,255.879349 333.019623,271.527100 
	C333.029449,272.668762 334.281403,274.740875 335.037170,274.779266 
	C339.330444,274.997162 343.864014,275.430023 347.831512,274.212097 
	C349.081726,273.828308 348.825104,268.573608 349.297302,265.554321 
	C349.340546,265.278107 349.669800,265.046600 349.874207,264.800568 
	C356.302429,264.127533 356.238770,264.160950 359.036926,269.493286 
	C360.017151,271.361237 361.306244,274.442200 362.607544,274.523743 
	C367.693604,274.842590 372.840973,274.182678 378.815002,273.972839 
	C383.061676,274.317352 387.311157,274.631195 391.554047,275.017273 
	C394.392975,275.275513 396.216187,274.383575 397.300415,271.474548 
	C397.697113,270.410217 399.640045,269.516296 400.995605,269.306274 
	C403.273956,268.953278 405.647095,269.237274 407.979614,269.202820 
	C411.419250,269.152008 415.082886,268.456360 416.095856,273.377655 
	C416.240295,274.079254 417.897736,274.891724 418.880615,274.926453 
	C423.494659,275.089630 428.117645,274.999023 433.517914,274.999023 
	C432.806335,272.750793 432.457886,271.181976 431.828949,269.735077 
	C425.336975,254.799957 418.764069,239.899902 412.305756,224.950333 
	C411.055023,222.055206 409.939240,219.774765 406.000671,219.854019 
	C402.273712,219.929016 401.227356,222.213791 400.075958,224.851471 
	C393.694031,239.471375 387.331238,254.099777 380.880127,268.689117 
	C380.194092,270.240540 378.976746,271.556946 378.013397,272.255676 
M114.813255,274.038513 
	C123.426651,277.022064 131.397354,275.163910 134.912201,269.209381 
	C136.628845,269.209381 138.456497,269.075134 140.257904,269.235626 
	C144.885437,269.647858 150.770264,266.903595 152.832809,274.080292 
	C152.933182,274.429565 153.621124,274.861481 154.010513,274.838196 
	C159.353271,274.518433 164.691635,274.125305 170.620605,274.543091 
	C174.419052,274.696777 178.230865,274.703674 182.012009,275.047638 
	C185.429535,275.358551 186.288803,273.870300 186.188339,270.715027 
	C185.996918,264.702789 186.132812,258.680115 186.132812,251.880692 
	C188.346130,253.528107 189.686752,254.492279 190.991592,255.502670 
	C199.142456,261.814270 207.260330,268.168793 215.443024,274.438812 
	C218.764557,276.983948 220.827255,276.449097 220.853531,272.965027 
	C220.976471,256.662445 220.960541,240.357788 220.782440,224.056183 
	C220.771149,223.023697 219.027802,221.211761 217.981903,221.128860 
	C213.733475,220.792099 209.442764,220.988815 204.516144,220.988815 
	C204.516144,229.079056 204.516144,236.603882 204.516144,245.094559 
	C192.562805,236.472412 182.823303,226.659027 171.396591,219.214249 
	C170.944244,219.603638 170.491913,219.993042 170.039566,220.382446 
	C170.039566,237.631760 170.039566,254.881058 169.285004,272.088898 
	C162.419739,256.450897 155.557404,240.811615 148.686478,225.176102 
	C147.487885,222.448578 146.587143,219.835175 142.533859,219.842438 
	C138.583771,219.849518 137.460022,222.208313 136.238312,225.014084 
	C129.816422,239.762634 123.407204,254.516998 116.877190,269.217621 
	C116.357368,270.387848 114.953651,271.165405 113.896141,271.404144 
	C111.859329,267.617157 109.822517,263.830170 107.760086,259.995544 
	C108.349495,259.313049 108.738998,258.791443 109.198242,258.340912 
	C116.004654,251.663574 117.544632,243.727173 114.297806,234.974106 
	C111.061363,226.249039 104.170303,221.864380 95.206787,221.213043 
	C87.746056,220.670929 80.214020,220.866104 72.728752,221.144043 
	C71.469833,221.190765 69.246185,223.300583 69.228325,224.483719 
	C68.991844,240.142975 69.025742,255.807373 69.161491,271.469025 
	C69.171516,272.626038 70.429520,274.723145 71.195770,274.765045 
	C75.487816,274.999634 80.032600,275.462830 83.989555,274.233612 
	C85.300537,273.826355 85.111099,268.624084 85.643959,265.620544 
	C85.694489,265.335693 86.005470,265.097046 86.203239,264.841217 
	C90.771286,263.464478 93.722939,264.885468 95.357979,269.551239 
	C96.031776,271.473969 97.625328,274.451355 98.940681,274.527496 
	C103.929581,274.816193 108.975807,274.113983 114.813255,274.038513 
M300.719421,220.032715 
	C288.285248,221.463623 279.525604,227.824203 275.888306,239.902313 
	C272.533508,251.042374 275.211090,261.075378 283.998962,268.918854 
	C293.600159,277.488281 307.425079,278.370087 318.287048,271.530762 
	C328.554108,265.066101 333.332397,252.180389 329.945648,240.090546 
	C326.550262,227.969666 315.494873,220.131378 300.719421,220.032715 
M246.477448,251.800751 
	C250.327927,258.384460 254.123978,265.001129 258.074310,271.524353 
	C258.874023,272.844940 260.197784,274.710754 261.380890,274.788483 
	C266.743958,275.140839 272.143219,274.942627 278.764343,274.942627 
	C271.454285,262.219208 264.814087,250.661667 258.150787,239.063904 
	C263.488068,233.303665 268.544739,227.846237 273.601440,222.388824 
	C273.270813,221.919693 272.940186,221.450562 272.609558,220.981430 
	C268.496918,220.981430 264.367035,221.215591 260.276489,220.914902 
	C256.266479,220.620117 253.307312,221.806808 250.778870,225.001205 
	C248.251099,228.194702 245.246353,231.010681 241.735474,234.754913 
	C241.495071,229.562714 241.302948,225.413086 241.098022,220.987289 
	C236.340805,220.987289 232.178543,220.787155 228.060196,221.124054 
	C226.993179,221.211334 225.210114,222.970566 225.198669,223.978195 
	C225.017166,239.959625 225.016937,255.944321 225.195526,271.925812 
	C225.207077,272.960785 226.946045,274.776947 227.990082,274.859711 
	C232.241531,275.196808 236.535294,275.000031 241.439392,275.000031 
	C241.439392,270.462891 241.716904,266.476044 241.365463,262.545471 
	C240.972488,258.150299 242.246078,254.742630 246.477448,251.800751 
M400.560760,315.679932 
	C405.314178,312.723145 400.223480,308.611786 401.780518,305.280090 
	C399.015442,304.526550 396.250366,303.773010 393.212677,302.945160 
	C393.212677,308.070892 393.212677,311.852905 393.212677,315.921112 
	C395.535370,315.921112 397.649658,315.921112 400.560760,315.679932 
M380.154327,314.172821 
	C382.692963,317.850983 385.776306,315.727814 388.670624,315.617920 
	C388.728485,315.182220 388.786316,314.746521 388.844147,314.310822 
	C386.936920,314.037384 385.029663,313.763916 383.122437,313.490479 
	C382.996368,313.053894 382.870331,312.617310 382.744263,312.180725 
	C384.542511,311.481842 386.340759,310.782928 389.007324,309.746552 
	C386.323181,308.804932 384.533142,308.177002 382.743134,307.549072 
	C382.827728,307.161316 382.912354,306.773560 382.996979,306.385803 
	C384.948456,305.977448 386.899933,305.569092 388.851410,305.160736 
	C388.774628,304.719879 388.697845,304.278992 388.621094,303.838135 
	C385.972870,303.838135 383.324615,303.838135 380.140686,303.838135 
	C380.140686,307.050476 380.140686,310.149628 380.154327,314.172821 
M430.071991,303.382233 
	C427.688934,303.529816 425.305908,303.677429 422.922852,303.825012 
	C422.912506,304.260742 422.902161,304.696472 422.891815,305.132202 
	C424.140564,305.628296 425.389313,306.124420 426.475616,306.556000 
	C426.665405,309.946564 426.837219,313.015594 427.009003,316.084625 
	C427.595398,316.082458 428.181793,316.080292 428.768188,316.078094 
	C428.958527,312.831879 429.148834,309.585663 429.314148,306.766357 
	C430.673279,305.895081 431.788177,305.180389 432.903076,304.465668 
	C432.239838,304.108917 431.576630,303.752197 430.071991,303.382233 
z"/>
<path fill="#252525" opacity="1.000000" stroke="none" 
	d="
M301.169495,220.019989 
	C315.494873,220.131378 326.550262,227.969666 329.945648,240.090546 
	C333.332397,252.180389 328.554108,265.066101 318.287048,271.530762 
	C307.425079,278.370087 293.600159,277.488281 283.998962,268.918854 
	C275.211090,261.075378 272.533508,251.042374 275.888306,239.902313 
	C279.525604,227.824203 288.285248,221.463623 301.169495,220.019989 
M305.665131,236.669373 
	C299.391785,235.757889 294.648010,237.849991 292.192383,242.611160 
	C289.202606,248.407974 291.463959,255.455490 297.241516,258.346771 
	C303.363708,261.410522 311.071838,258.837433 313.724457,252.844543 
	C316.542206,246.478561 313.607208,240.067062 305.665131,236.669373 
z"/>
<path fill="#242424" opacity="1.000000" stroke="none" 
	d="
M170.039566,272.130371 
	C170.039566,254.881058 170.039566,237.631760 170.039566,220.382446 
	C170.491913,219.993042 170.944244,219.603638 171.396591,219.214249 
	C182.823303,226.659027 192.562805,236.472412 204.516144,245.094559 
	C204.516144,236.603882 204.516144,229.079056 204.516144,220.988815 
	C209.442764,220.988815 213.733475,220.792099 217.981903,221.128860 
	C219.027802,221.211761 220.771149,223.023697 220.782440,224.056183 
	C220.960541,240.357788 220.976471,256.662445 220.853531,272.965027 
	C220.827255,276.449097 218.764557,276.983948 215.443024,274.438812 
	C207.260330,268.168793 199.142456,261.814270 190.991592,255.502670 
	C189.686752,254.492279 188.346130,253.528107 186.132812,251.880692 
	C186.132812,258.680115 185.996918,264.702789 186.188339,270.715027 
	C186.288803,273.870300 185.429535,275.358551 182.012009,275.047638 
	C178.230865,274.703674 174.419052,274.696777 170.319046,273.944214 
	C170.024841,272.940338 170.032196,272.535370 170.039566,272.130371 
z"/>
<path fill="#252525" opacity="1.000000" stroke="none" 
	d="
M114.000595,273.782318 
	C108.975807,274.113983 103.929581,274.816193 98.940681,274.527496 
	C97.625328,274.451355 96.031776,271.473969 95.357979,269.551239 
	C93.722939,264.885468 90.771286,263.464478 86.199387,264.839081 
	C86.005470,265.097046 85.694489,265.335693 85.643959,265.620544 
	C85.111099,268.624084 85.300537,273.826355 83.989555,274.233612 
	C80.032600,275.462830 75.487816,274.999634 71.195770,274.765045 
	C70.429520,274.723145 69.171516,272.626038 69.161491,271.469025 
	C69.025742,255.807373 68.991844,240.142975 69.228325,224.483719 
	C69.246185,223.300583 71.469833,221.190765 72.728752,221.144043 
	C80.214020,220.866104 87.746056,220.670929 95.206787,221.213043 
	C104.170303,221.864380 111.061363,226.249039 114.297806,234.974106 
	C117.544632,243.727173 116.004654,251.663574 109.198242,258.340912 
	C108.738998,258.791443 108.349495,259.313049 107.760086,259.995544 
	C109.822517,263.830170 111.859329,267.617157 113.938477,272.040833 
	C113.987404,273.045807 113.994003,273.414062 114.000595,273.782318 
M97.671761,248.229065 
	C99.873947,245.098251 100.407379,241.803574 98.097908,238.567932 
	C94.973602,234.190659 90.388039,235.003510 85.661148,235.338226 
	C85.661148,240.534698 85.661148,245.576813 85.661148,251.949615 
	C89.830025,250.798935 93.481674,249.791016 97.671761,248.229065 
z"/>
<path fill="#232323" opacity="1.000000" stroke="none" 
	d="
M377.965576,273.886597 
	C372.840973,274.182678 367.693604,274.842590 362.607544,274.523743 
	C361.306244,274.442200 360.017151,271.361237 359.036926,269.493286 
	C356.238770,264.160950 356.302429,264.127533 349.870209,264.797455 
	C349.669800,265.046600 349.340546,265.278107 349.297302,265.554321 
	C348.825104,268.573608 349.081726,273.828308 347.831512,274.212097 
	C343.864014,275.430023 339.330444,274.997162 335.037170,274.779266 
	C334.281403,274.740875 333.029449,272.668762 333.019623,271.527100 
	C332.885040,255.879349 332.966919,240.229858 332.893921,224.581268 
	C332.880188,221.637131 334.272888,220.909653 336.904358,220.951935 
	C343.395355,221.056274 349.890869,220.896591 356.381256,221.019043 
	C366.164459,221.203629 374.063385,225.013718 377.819489,234.415497 
	C381.475739,243.567108 379.856323,252.054596 372.329071,258.969513 
	C372.102722,259.177460 372.014771,259.536102 371.679840,260.169556 
	C373.722870,264.068176 375.868134,268.161926 377.997833,272.845032 
	C377.982269,273.434357 377.965576,273.886597 377.965576,273.886597 
M362.051880,247.232819 
	C361.861267,244.143692 362.708923,240.392014 361.252960,238.110306 
	C358.630310,234.000336 353.819641,234.939926 349.419373,235.376099 
	C349.419373,240.686310 349.419373,245.715027 349.419373,252.366394 
	C354.013306,250.697205 357.829254,249.310684 362.051880,247.232819 
z"/>
<path fill="#252525" opacity="1.000000" stroke="none" 
	d="
M246.131622,251.979218 
	C242.246078,254.742630 240.972488,258.150299 241.365463,262.545471 
	C241.716904,266.476044 241.439392,270.462891 241.439392,275.000031 
	C236.535294,275.000031 232.241531,275.196808 227.990082,274.859711 
	C226.946045,274.776947 225.207077,272.960785 225.195526,271.925812 
	C225.016937,255.944321 225.017166,239.959625 225.198669,223.978195 
	C225.210114,222.970566 226.993179,221.211334 228.060196,221.124054 
	C232.178543,220.787155 236.340805,220.987289 241.098022,220.987289 
	C241.302948,225.413086 241.495071,229.562714 241.735474,234.754913 
	C245.246353,231.010681 248.251099,228.194702 250.778870,225.001205 
	C253.307312,221.806808 256.266479,220.620117 260.276489,220.914902 
	C264.367035,221.215591 268.496918,220.981430 272.609558,220.981430 
	C272.940186,221.450562 273.270813,221.919693 273.601440,222.388824 
	C268.544739,227.846237 263.488068,233.303665 258.150787,239.063904 
	C264.814087,250.661667 271.454285,262.219208 278.764343,274.942627 
	C272.143219,274.942627 266.743958,275.140839 261.380890,274.788483 
	C260.197784,274.710754 258.874023,272.844940 258.074310,271.524353 
	C254.123978,265.001129 250.327927,258.384460 246.131622,251.979218 
z"/>
<path fill="#252525" opacity="1.000000" stroke="none" 
	d="
M114.406921,273.910400 
	C113.994003,273.414062 113.987404,273.045807 113.970749,272.401489 
	C114.953651,271.165405 116.357368,270.387848 116.877190,269.217621 
	C123.407204,254.516998 129.816422,239.762634 136.238312,225.014084 
	C137.460022,222.208313 138.583771,219.849518 142.533859,219.842438 
	C146.587143,219.835175 147.487885,222.448578 148.686478,225.176102 
	C155.557404,240.811615 162.419739,256.450897 169.662292,272.109619 
	C170.032196,272.535370 170.024841,272.940338 170.024292,273.547760 
	C164.691635,274.125305 159.353271,274.518433 154.010513,274.838196 
	C153.621124,274.861481 152.933182,274.429565 152.832809,274.080292 
	C150.770264,266.903595 144.885437,269.647858 140.257904,269.235626 
	C138.456497,269.075134 136.628845,269.209381 134.912201,269.209381 
	C131.397354,275.163910 123.426651,277.022064 114.406921,273.910400 
M140.629761,250.263107 
	C139.935593,252.401978 139.241425,254.540848 138.481842,256.881287 
	C141.335266,256.881287 143.649582,256.881287 146.421951,256.881287 
	C145.086304,252.992538 143.923599,249.607346 142.454483,245.329956 
	C141.681427,247.389420 141.283447,248.449615 140.629761,250.263107 
z"/>
<path fill="#252525" opacity="1.000000" stroke="none" 
	d="
M378.390289,273.929718 
	C377.965576,273.886597 377.982269,273.434357 377.994080,273.208374 
	C378.976746,271.556946 380.194092,270.240540 380.880127,268.689117 
	C387.331238,254.099777 393.694031,239.471375 400.075958,224.851471 
	C401.227356,222.213791 402.273712,219.929016 406.000671,219.854019 
	C409.939240,219.774765 411.055023,222.055206 412.305756,224.950333 
	C418.764069,239.899902 425.336975,254.799957 431.828949,269.735077 
	C432.457886,271.181976 432.806335,272.750793 433.517914,274.999023 
	C428.117645,274.999023 423.494659,275.089630 418.880615,274.926453 
	C417.897736,274.891724 416.240295,274.079254 416.095856,273.377655 
	C415.082886,268.456360 411.419250,269.152008 407.979614,269.202820 
	C405.647095,269.237274 403.273956,268.953278 400.995605,269.306274 
	C399.640045,269.516296 397.697113,270.410217 397.300415,271.474548 
	C396.216187,274.383575 394.392975,275.275513 391.554047,275.017273 
	C387.311157,274.631195 383.061676,274.317352 378.390289,273.929718 
M403.739716,252.186050 
	C403.246979,253.705627 402.754211,255.225189 402.168762,257.030670 
	C404.971863,257.030670 407.382385,257.030670 410.222992,257.030670 
	C408.931305,253.260864 407.760559,249.844055 406.173096,245.211090 
	C405.132385,248.119431 404.538422,249.779297 403.739716,252.186050 
z"/>
<path fill="#3A3939" opacity="1.000000" stroke="none" 
	d="
M416.329681,290.653900 
	C417.599945,291.955902 419.152313,293.104675 419.987610,294.642883 
	C420.280304,295.181915 418.788422,297.594757 418.148499,297.579681 
	C415.305389,297.512695 412.475708,296.875275 408.791382,296.314911 
	C405.931000,299.285034 403.478851,299.254425 399.573151,295.565247 
	C397.605072,296.562653 395.776642,297.489258 394.509583,298.131378 
	C395.306274,293.894867 395.998932,290.211578 396.741089,286.264862 
	C397.990814,286.168243 399.749573,286.032227 402.091217,285.851166 
	C402.091217,288.400116 401.816956,290.865112 402.217438,293.215088 
	C402.393524,294.248169 403.943481,295.047058 404.869598,295.952301 
	C405.604614,295.045593 406.773804,294.226532 406.978394,293.212799 
	C407.332550,291.457764 406.886200,289.552887 407.143829,287.763885 
	C407.521545,285.140717 408.549957,285.060516 409.785187,288.130981 
	C409.810242,290.325470 409.810242,291.797760 409.810242,293.638000 
	C412.305603,294.432648 414.796844,295.225983 417.288055,296.019318 
	C417.504822,295.381165 417.721588,294.743042 417.938354,294.104919 
	C416.399719,293.467407 414.602753,293.133423 413.395813,292.106201 
	C412.212585,291.099091 411.629761,289.386566 410.783386,287.983643 
	C411.808044,287.236694 412.821350,285.866394 413.859253,285.847473 
	C419.220734,285.749786 424.588501,285.997986 430.356201,286.478851 
	C423.472839,288.198212 428.390930,294.841431 424.398590,299.410400 
	C424.398590,294.849274 424.398590,291.697205 424.398590,287.398285 
	C421.760468,288.254761 420.016785,288.820862 417.688416,289.077454 
	C415.903259,288.506897 414.702820,288.245850 413.502350,287.984802 
	C413.377899,288.394073 413.253448,288.803375 413.129028,289.212646 
	C414.195923,289.693054 415.262787,290.173462 416.329681,290.653900 
z"/>
<path fill="#3A3939" opacity="1.000000" stroke="none" 
	d="
M400.162354,315.800537 
	C397.649658,315.921112 395.535370,315.921112 393.212677,315.921112 
	C393.212677,311.852905 393.212677,308.070892 393.212677,302.945160 
	C396.250366,303.773010 399.015442,304.526550 401.780518,305.280090 
	C400.223480,308.611786 405.314178,312.723145 400.162354,315.800537 
z"/>
<path fill="#3A3939" opacity="1.000000" stroke="none" 
	d="
M411.973450,314.557922 
	C412.465912,313.745575 412.958374,312.933258 413.381195,312.235840 
	C415.449463,312.795197 417.546051,313.362244 419.642609,313.929260 
	C419.846863,313.247345 420.051117,312.565399 420.255402,311.883484 
	C418.706787,311.293213 416.894135,311.022125 415.684692,310.021820 
	C414.502930,309.044373 413.936707,307.322693 413.100281,305.927704 
	C415.032715,305.128235 416.946228,303.781830 418.904022,303.713959 
	C420.301758,303.665527 423.329773,304.425201 421.088226,307.446930 
	C420.793091,307.844727 420.722076,308.857849 421.004181,309.161865 
	C422.813263,311.111115 423.837067,313.589996 421.290527,315.002838 
	C419.505585,315.993011 416.729065,315.230682 414.397095,315.176636 
	C413.784607,315.162476 413.178528,314.871735 412.240692,314.930420 
	C411.891510,314.950287 411.912018,314.751984 411.973450,314.557922 
M418.955658,308.428284 
	C418.300903,307.480927 417.646149,306.533539 416.991394,305.586182 
	C416.547028,306.024811 416.102661,306.463440 415.658295,306.902039 
	C416.405487,307.357452 417.152710,307.812836 418.955658,308.428284 
z"/>
<path fill="#484747" opacity="1.000000" stroke="none" 
	d="
M380.147522,313.710815 
	C380.140686,310.149628 380.140686,307.050476 380.140686,303.838135 
	C383.324615,303.838135 385.972870,303.838135 388.621094,303.838135 
	C388.697845,304.278992 388.774628,304.719879 388.851410,305.160736 
	C386.899933,305.569092 384.948456,305.977448 382.996979,306.385803 
	C382.912354,306.773560 382.827728,307.161316 382.743134,307.549072 
	C384.533142,308.177002 386.323181,308.804932 389.007324,309.746552 
	C386.340759,310.782928 384.542511,311.481842 382.744263,312.180725 
	C382.870331,312.617310 382.996368,313.053894 383.122437,313.490479 
	C385.029663,313.763916 386.936920,314.037384 388.844147,314.310822 
	C388.786316,314.746521 388.728485,315.182220 388.670624,315.617920 
	C385.776306,315.727814 382.692963,317.850983 380.147522,313.710815 
z"/>
<path fill="#2E2E2E" opacity="1.000000" stroke="none" 
	d="
M411.591522,314.270416 
	C411.912018,314.751984 411.891510,314.950287 411.942627,315.299561 
	C409.541656,315.712555 407.109924,315.978851 404.265259,316.290375 
	C404.265259,312.056183 404.265259,308.163483 404.265259,303.963104 
	C406.711029,303.963104 409.309387,303.963104 411.907745,303.963104 
	C411.969971,304.351562 412.032227,304.740021 412.094452,305.128479 
	C410.223511,305.502777 408.352539,305.877075 406.481567,306.251373 
	C406.330750,306.625061 406.179932,306.998718 406.029114,307.372406 
	C407.789062,308.080414 409.548981,308.788422 411.879456,309.725952 
	C409.658997,310.706207 407.813965,311.520721 405.968964,312.335236 
	C406.113007,312.771301 406.257080,313.207397 406.401154,313.643463 
	C408.003967,313.756622 409.606781,313.869781 411.591522,314.270416 
z"/>
<path fill="#2E2E2E" opacity="1.000000" stroke="none" 
	d="
M368.982910,304.241455 
	C370.060455,305.392670 371.138000,306.543884 372.215515,307.695068 
	C376.866058,311.005493 375.893219,305.383087 378.381531,302.568665 
	C378.381531,307.742676 378.381531,311.816650 378.381531,315.890625 
	C377.983765,315.971588 377.585999,316.052582 377.188232,316.133545 
	C376.853729,314.599640 376.519226,313.065704 376.106476,311.172974 
	C374.839264,311.082642 373.412903,310.980927 371.717072,310.860016 
	C371.345215,312.696320 371.010345,314.349884 370.675507,316.003479 
	C370.080566,316.031067 369.485626,316.058655 368.890686,316.086243 
	C368.890686,313.058533 368.890686,310.030853 368.989319,306.247314 
	C369.052917,305.074799 369.017914,304.658112 368.982910,304.241455 
z"/>
<path fill="#595857" opacity="1.000000" stroke="none" 
	d="
M368.639465,304.026917 
	C369.017914,304.658112 369.052917,305.074799 369.013000,305.797119 
	C367.682037,306.102753 366.425964,306.102753 365.174347,306.102753 
	C364.869659,309.721313 364.598602,312.940765 364.327545,316.160187 
	C363.687897,316.151154 363.048248,316.142120 362.408600,316.133087 
	C362.196960,313.051910 361.985352,309.970734 361.742035,306.428162 
	C360.744598,306.075500 359.487122,305.630859 358.229645,305.186218 
	C358.252930,304.728271 358.276215,304.270325 358.299530,303.812378 
	C361.631683,303.812378 364.963837,303.812378 368.639465,304.026917 
z"/>
<path fill="#484747" opacity="1.000000" stroke="none" 
	d="
M430.492676,303.388855 
	C431.576630,303.752197 432.239838,304.108917 432.903076,304.465668 
	C431.788177,305.180389 430.673279,305.895081 429.314148,306.766357 
	C429.148834,309.585663 428.958527,312.831879 428.768188,316.078094 
	C428.181793,316.080292 427.595398,316.082458 427.009003,316.084625 
	C426.837219,313.015594 426.665405,309.946564 426.475616,306.556000 
	C425.389313,306.124420 424.140564,305.628296 422.891815,305.132202 
	C422.902161,304.696472 422.912506,304.260742 422.922852,303.825012 
	C425.305908,303.677429 427.688934,303.529816 430.492676,303.388855 
z"/>
<path fill="#EAE8E4" opacity="1.000000" stroke="none" 
	d="
M410.591492,287.979065 
	C411.629761,289.386566 412.212585,291.099091 413.395813,292.106201 
	C414.602753,293.133423 416.399719,293.467407 417.938354,294.104919 
	C417.721588,294.743042 417.504822,295.381165 417.288055,296.019318 
	C414.796844,295.225983 412.305603,294.432648 409.810242,293.638000 
	C409.810242,291.797760 409.810242,290.325470 409.913330,288.425812 
	C410.016388,287.998444 410.399597,287.974518 410.591492,287.979065 
z"/>
<path fill="#F1EFEB" opacity="1.000000" stroke="none" 
	d="
M306.041321,236.775909 
	C313.607208,240.067062 316.542206,246.478561 313.724457,252.844543 
	C311.071838,258.837433 303.363708,261.410522 297.241516,258.346771 
	C291.463959,255.455490 289.202606,248.407974 292.192383,242.611160 
	C294.648010,237.849991 299.391785,235.757889 306.041321,236.775909 
z"/>
<path fill="#EAE8E4" opacity="1.000000" stroke="none" 
	d="
M97.402542,248.506073 
	C93.481674,249.791016 89.830025,250.798935 85.661148,251.949615 
	C85.661148,245.576813 85.661148,240.534698 85.661148,235.338226 
	C90.388039,235.003510 94.973602,234.190659 98.097908,238.567932 
	C100.407379,241.803574 99.873947,245.098251 97.402542,248.506073 
z"/>
<path fill="#EDEBE7" opacity="1.000000" stroke="none" 
	d="
M361.848541,247.578491 
	C357.829254,249.310684 354.013306,250.697205 349.419373,252.366394 
	C349.419373,245.715027 349.419373,240.686310 349.419373,235.376099 
	C353.819641,234.939926 358.630310,234.000336 361.252960,238.110306 
	C362.708923,240.392014 361.861267,244.143692 361.848541,247.578491 
z"/>
<path fill="#EAE8E4" opacity="1.000000" stroke="none" 
	d="
M140.757629,249.886475 
	C141.283447,248.449615 141.681427,247.389420 142.454483,245.329956 
	C143.923599,249.607346 145.086304,252.992538 146.421951,256.881287 
	C143.649582,256.881287 141.335266,256.881287 138.481842,256.881287 
	C139.241425,254.540848 139.935593,252.401978 140.757629,249.886475 
z"/>
<path fill="#EAE8E4" opacity="1.000000" stroke="none" 
	d="
M403.842102,251.812622 
	C404.538422,249.779297 405.132385,248.119431 406.173096,245.211090 
	C407.760559,249.844055 408.931305,253.260864 410.222992,257.030670 
	C407.382385,257.030670 404.971863,257.030670 402.168762,257.030670 
	C402.754211,255.225189 403.246979,253.705627 403.842102,251.812622 
z"/>
<path fill="#F6F4F0" opacity="1.000000" stroke="none" 
	d="
M416.647339,290.345703 
	C415.262787,290.173462 414.195923,289.693054 413.129028,289.212646 
	C413.253448,288.803375 413.377899,288.394073 413.502350,287.984802 
	C414.702820,288.245850 415.903259,288.506897 417.345581,289.087982 
	C417.379944,289.617828 417.172485,289.827667 416.647339,290.345703 
z"/>
<path fill="#F6F4F0" opacity="1.000000" stroke="none" 
	d="
M418.427795,308.348267 
	C417.152710,307.812836 416.405487,307.357452 415.658295,306.902039 
	C416.102661,306.463440 416.547028,306.024811 416.991394,305.586182 
	C417.646149,306.533539 418.300903,307.480927 418.427795,308.348267 
z"/>
</svg>